<?xml version="1.0" encoding="UTF-8" standalone="no"?>
<svg
   id="Layer_1"
   data-name="Layer 1"
   viewBox="0 0 151.32848 111.84063"
   version="1.1"
   sodipodi:docname="daily-prince.svg"
   inkscape:version="1.2 (dc2aedaf03, 2022-05-15)"
   width="151.32849"
   height="111.84062"
   xmlns:inkscape="http://www.inkscape.org/namespaces/inkscape"
   xmlns:sodipodi="http://sodipodi.sourceforge.net/DTD/sodipodi-0.dtd"
   xmlns="http://www.w3.org/2000/svg"
   xmlns:svg="http://www.w3.org/2000/svg">
  <sodipodi:namedview
     id="namedview55"
     pagecolor="#ffffff"
     bordercolor="#000000"
     borderopacity="0.25"
     inkscape:showpageshadow="2"
     inkscape:pageopacity="0.0"
     inkscape:pagecheckerboard="0"
     inkscape:deskcolor="#d1d1d1"
     showgrid="false"
     inkscape:zoom="2.9565865"
     inkscape:cx="67.476464"
     inkscape:cy="100.79191"
     inkscape:window-width="1920"
     inkscape:window-height="1009"
     inkscape:window-x="-8"
     inkscape:window-y="-8"
     inkscape:window-maximized="1"
     inkscape:current-layer="Layer_1" />
  <defs
     id="defs4">
    <style
       id="style2">.cls-1{fill:#fff;stroke:#fff;stroke-miterlimit:10;stroke-width:0.75px;}</style>
  </defs>
  <path
     style="fill:#000000;stroke-width:0.32"
     d="m 66.372299,110.93573 c -3.62817,-0.98721 -4.75329,-1.5161 -5.98113,-2.81158 -0.93123,-0.98252 -2.16048,-3.44379 -2.17184,-4.34857 -0.009,-0.7074 -1.04071,-0.73615 -2.07596,-0.0578 -0.65945,0.4321 -1.71242,0.47624 -7.54526,0.31632 -3.72837,-0.10223 -6.91351,-0.26908 -7.07808,-0.37079 -0.16457,-0.10172 -1.38726,0.0571 -2.71709,0.35299 -2.69528,0.59964 -4.11741,0.46367 -5.35817,-0.51232 -1.61694,-1.27188 -0.86759,-3.849721 1.84416,-6.344148 1.01135,-0.9303 1.02555,-1.03649 0.20688,-1.54776 -0.70066,-0.43757 -1.59779,-0.13254 -11.52351,3.91807 -9.30636,3.797848 -17.3146299,6.282508 -20.4505499,6.345018 -3.37845004,0.0673 -4.56264,-1.71036 -2.50799,-3.765 0.82851,-0.82852 1.92424,-1.31977 5.35901,-2.402671 2.37466,-0.748667 6.6939999,-2.363837 9.5985499,-3.589267 2.90454,-1.22543 6.0335,-2.52449 6.95325,-2.88679 l 1.67228,-0.65872 -0.67057,-0.94172 c -0.94412,-1.32591 -1.55398,-3.56518 -1.55398,-5.70593 0,-1.371857 -0.20673,-2.198727 -0.82736,-3.309137 -0.45504,-0.81417 -0.91256,-1.48031 -1.01669,-1.48031 -0.10414,0 -0.5687,0.45442 -1.03237,1.00982 -0.70636,0.84611 -0.98692,0.97371 -1.73058,0.78706 -1.72502,-0.43295 -3.713,-3.38634 -3.713,-5.51611 0,-0.76614 0.33356,-1.70454 0.94406,-2.65591 1.03766,-1.617073 1.93594,-4.617029 1.93594,-6.465425 0,-0.652356 0.12241,-1.2341 0.27202,-1.292768 0.14961,-0.05867 0.35138,-0.71472 0.44838,-1.457898 0.20024,-1.534256 -0.0745,-1.402125 -1.32098,0.63528 -1.30069,2.126048 -2.98055,2.456282 -4.33097,0.851398 -0.75351,-0.895484 -0.82781,-1.235622 -0.82142,-3.76 0.008,-3.348364 0.59141,-4.85494 2.64869,-6.845436 l 1.41597,-1.37001 0.39062,-3.52 c 0.52518,-4.732515 1.16189,-7.749917 1.76196,-8.349984 0.27265,-0.272653 0.49573,-0.624176 0.49573,-0.781165 0,-0.156989 0.88051,-1.226704 1.95669,-2.377142 l 1.95669,-2.091709 h -1.30931 c -1.01216,0 -1.41067,-0.163408 -1.75588,-0.72 -0.58532,-0.943712 -1.30743,-5.401645 -1.0446,-6.448838 0.33191,-1.322448 2.21454,-2.926442 5.31325,-4.526858 3.00612,-1.552605 4.50191,-2.953251 5.19471,-4.864304 0.20736,-0.572 0.49209,-1.04 0.63274,-1.04 0.14064,0 0.25571,-0.216 0.25571,-0.48 0,-0.264 -0.14416,-0.48 -0.32035,-0.48 -1.28257,0 -5.19191,-6.178014 -5.62562,-8.890284 -0.40239,-2.5164542 1.38553,-4.2292372 4.41569,-4.2301112 0.75366,-2.18e-4 3.0628,0.238921 5.13144,0.53142 3.6958,0.522574 3.80844,0.519842 6.4824,-0.157239 1.49668,-0.37898 3.90816,-1.286056 5.35884,-2.015725 7.3114,-3.67751404 15.25865,-4.87351503 23.29866,-3.506273 l 4.021057,0.6838 2.05894,-0.635892 c 2.63735,-0.81453303 9.03826,-1.42942003 10.7275,-1.03051303 5.57678,1.31693203 7.20516,1.94641903 9.73307,3.76253903 2.12573,1.527184 8.031694,4.238796 10.748234,4.934848 1.24843,0.319881 4.47275,0.744074 7.16516,0.9426511 3.01599,0.222442 5.24442,0.5415901 5.80472,0.8313311 2.24521,1.161044 2.43495,4.143893 0.44718,7.030052 -1.52387,2.212585 -5.05927,5.83827 -6.17939,6.337191 -0.47715,0.212525 -1.36434,0.653808 -1.97155,0.980627 l -1.10401,0.594221 1.91833,0.694611 c 2.56379,0.928324 4.39285,1.97912 8.56134,4.91848 6.15827,4.342442 7.00199,5.3756 7.44112,9.111965 0.17223,1.465392 0.0958,1.992663 -0.41386,2.856531 -0.6031,1.022186 -0.60475,1.080829 -0.047,1.66834 0.93182,0.981484 1.05104,2.491916 0.32605,4.13088 l -0.64095,1.448972 0.64452,0.58328 c 0.53978,0.488496 0.6203,0.869367 0.49549,2.343789 -0.12773,1.508928 -0.041,1.889773 0.60697,2.665063 1.36396,1.632003 1.13948,2.332419 -2.0472,6.387411 l -1.36318,1.73463 0.48829,1.168656 c 0.26856,0.642759 0.5756,2.003891 0.6823,3.024736 0.20202,1.932855 -0.25945,2.940013 -1.34708,2.940013 -0.54228,0 -0.55504,0.142864 -0.1416,1.584466 0.31566,1.10063 -0.0753,3.535163 -0.56788,3.535863 -0.12521,1.8e-4 -0.6413,0.73678 -1.14686,1.63689 -1.02758,1.82954 -0.9448,2.00202 1.11934,2.33209 2.19892,0.35162 13.75746,4.655767 18.51986,6.896397 2.552,1.20067 5.18365,2.35545 5.84813,2.56617 2.28976,0.72614 3.87032,2.70161 2.72692,3.40826 -0.21172,0.13086 -1.32773,0.40826 -2.48,0.61647 -3.52985,0.6378 -8.52739,2.25449 -10.7562,3.47959 -2.42076,1.33063 -4.35571,1.70589 -5.99919,1.16349 -0.62718,-0.20698 -2.40446,-1.23097 -3.94953,-2.27552 -1.56031,-1.05486 -3.5963,-2.1278 -4.57967,-2.41343 -0.97375,-0.28284 -2.98474,-1.15454 -4.46887,-1.9371 -3.76452,-1.985 -4.6486,-1.71087 -3.50582,1.08706 0.38831,0.95072 0.36487,1.10088 -0.27116,1.73691 -0.55627,0.55627 -1.0392,0.68719 -2.40257,0.65132 -0.93851,-0.0247 -2.241,-0.26828 -2.89443,-0.5413 -1.15089,-0.48087 -1.23062,-0.46915 -2.54784,0.37467 -0.74788,0.4791 -1.40315,0.89645 -1.45616,0.92744 -0.053,0.031 0.34124,0.74642 0.8761,1.58981 1.18001,1.86068 1.50254,3.359618 0.98945,4.598338 -0.58718,1.41757 -1.77911,1.76424 -4.43436,1.28972 -2.99926,-0.536 -5.017684,-0.2846 -7.560194,0.94163 -2.77452,1.33813 -3.33024,1.23951 -4.33461,-0.76924 -0.44,-0.88 -0.91147,-1.5813 -1.0477,-1.55846 -1.87858,0.31505 -2.00731,0.42126 -3.03346,2.50305 -2.08788,4.23577 -4.87689,6.26348 -9.46199,6.87925 -4.22764,0.56776 -7.683657,0.38855 -11.256847,-0.58369 z m 10.505437,-1.00911 c 3.49817,-0.40078 4.48564,-0.81074 6.23455,-2.58838 3.21805,-3.27092 5.36133,-10.737018 4.12195,-14.358758 -0.51547,-1.5063 -1.1872,-1.54012 -2.66236,-0.13405 -0.68177,0.64984 -2.31958,1.70097 -3.63958,2.33584 -2.36681,1.13835 -2.45311,1.1538 -6.24,1.1174 -6.806477,-0.0654 -10.599317,-1.00466 -13.394837,-3.31699 -0.85516,-0.70735 -1.73953,-1.2861 -1.96525,-1.2861 -0.56042,0 -1.44046,2.30589 -1.43746,3.76648 0.001,0.65644 0.29086,2.12952 0.64337,3.27352 0.35251,1.143997 0.85466,2.985698 1.11589,4.092668 0.95578,4.05019 1.79443,4.80932 7.00345,6.33945 3.8823,1.1404 5.707577,1.27594 10.220277,0.75892 z m -65.055287,-7.83609 c 3.25042,-0.98421 8.06985,-2.739318 10.70985,-3.900248 6.47248,-2.84624 19.38337,-7.12491 28.32,-9.38522 3.89681,-0.98561 8.62163,-2.77914 8.6339,-3.2774 0.003,-0.13635 -0.38367,-0.39611 -0.86006,-0.57723 -0.84523,-0.321347 -1.8888,-0.220727 -7.13384,0.68785 -5.00728,0.86739 -20.41918,6.21569 -34.08,11.82656 -5.19087,2.13204 -8.6426499,3.393838 -12.1599999,4.445088 -2.50223,0.74785 -3.54352,1.38982 -3.18784,1.96533 0.41335,0.6688 3.54916,0.0953 9.7579899,-1.78473 z m 83.671277,0.43741 2.15328,-1.00764 4.092964,0.19577 c 4.51165,0.21581 4.63508,0.16598 4.02334,-1.62404 -1.37409,-4.020748 -6.497924,-6.138828 -11.107674,-4.591668 -2.54458,0.85404 -4.56887,1.98173 -4.69043,2.61295 -0.0509,0.26422 0.49359,1.26598 1.20995,2.226118 0.71637,0.96014 1.38439,2.07206 1.4845,2.47093 0.10011,0.39888 0.29424,0.72522 0.4314,0.72522 0.13716,0 1.21836,-0.45344 2.40267,-1.00764 z m -51.465217,-0.44068 c 2.08108,0.0608 5.2341,0.21439 7.0067,0.34127 3.42749,0.24532 4.60807,-0.0262 4.6272,-1.0642 0.008,-0.43367 -0.84751,-4.156968 -2.12969,-9.268748 -0.14523,-0.57898 -1.94892,-0.49597 -5.66123,0.26055 -5.47833,1.11641 -6.75364,1.67505 -9.40845,4.12129 -5.41195,4.986778 -5.52507,6.869208 -0.35453,5.899768 1.23272,-0.23112 3.73653,-0.35375 5.92,-0.28993 z M 136.9323,95.580702 c 2.46726,-1.2681 8.8953,-3.24512 10.55112,-3.24512 1.25073,0 1.53668,-0.56756 0.42196,-0.83751 -0.4912,-0.11896 -2.62108,-1.0824 -4.73308,-2.14099 -2.112,-1.05859 -5.568,-2.53568 -7.68,-3.28241 -2.112,-0.74674 -5.496,-1.941027 -7.52,-2.653977 -6.35627,-2.23896 -9.37849,-2.68422 -24.29544,-3.57938 -4.219334,-0.2532 -6.283884,-0.25598 -7.261704,-0.01 -0.75145,0.18921 -2.74713,0.34403 -4.43484,0.34403 -3.60729,0 -5.01681,0.46732 -5.76326,1.91078 -0.98412,1.90309 -0.24928,2.66147 3.89695,4.021777 1.88356,0.61797 3.08471,1.25535 4.26613,2.26379 0.90443,0.77201 1.71987,1.40365 1.81209,1.40365 0.0922,0 0.59551,-0.36 1.11843,-0.8 0.70401,-0.5924 1.32218,-0.8 2.382083,-0.8 1.558451,0 2.166441,0.26126 6.105791,2.62376 3.96831,2.37987 7.77377,3.53276 7.77377,2.35512 0,-0.25361 -0.144,-0.55011 -0.32,-0.65888 -0.176,-0.10878 -0.32,-0.75711 -0.32,-1.44074 0,-2.58027 2.38754,-2.94823 6.17664,-0.95193 1.34389,0.70804 3.38929,1.57948 4.54533,1.93655 1.23391,0.38111 3.179,1.38263 4.71018,2.42525 1.43457,0.97683 2.9052,1.89626 3.26807,2.04317 1.39999,0.56682 2.9054,0.30345 5.29978,-0.92719 z m -55.520004,-2.88143 c 1.93494,-0.88018 2.06072,-1.152 1.76745,-3.81946 -0.26771,-2.435 -0.89366,-3.58423 -1.95223,-3.58423 -0.65955,0 -1.08234,1.12619 -1.56172,4.16 -0.64149,4.05973 -0.52461,4.27679 1.7465,3.24369 z m -15.589707,-0.12369 c 0.38147,-0.46426 0.4725,-1.45569 0.41872,-4.56 -0.0482,-2.7834 -0.31594,-3.303597 -1.43725,-2.79269 -1.72888,0.78773 -2.45361,5.22497 -1.12853,6.90954 0.71138,0.90437 1.61489,1.09085 2.14706,0.44315 z m -38.6716,-2.23642 c 0.19872,-0.57003 0.50469,-2.47803 0.67994,-4.24 0.54686,-5.497927 0.97764,-8.627207 1.21125,-8.798597 0.34722,-0.25476 1.5978,-5.764979 1.3084,-5.764979 -0.14059,0 -0.99108,0.716366 -1.88998,1.591916 -4.19048,4.081653 -5.7998,12.8701 -3.15111,17.20808 0.80507,1.31853 1.38272,1.31965 1.8415,0.004 z m -7.80918,-11.688437 c 0.58354,-1.11929 2.21313,-3.23034 3.77148,-4.885773 3.07564,-3.267241 3.88147,-4.674377 4.50501,-7.866665 0.44584,-2.282493 1.08049,-3.962701 1.49682,-3.962701 0.13205,0 0.54446,-0.628739 0.91646,-1.397197 0.54125,-1.118077 0.63703,-1.741369 0.47945,-3.12 -0.19032,-1.665049 -0.1584,-1.759773 0.95218,-2.825577 0.632,-0.606525 1.14909,-1.205044 1.14909,-1.330042 0,-0.544515 -1.36295,0.202803 -2.28488,1.252826 -1.01925,1.16086 -1.96817,1.88295 -5.71512,4.348985 -2.46088,1.619616 -4.26671,3.529549 -4.75504,5.029178 -0.19375,0.595005 -0.56754,2.593827 -0.83064,4.441827 -0.63001,4.425206 -0.95563,5.472536 -2.10221,6.761779 -1.62246,1.82431 -1.61119,2.94967 0.0485,4.84059 0.41767,0.47586 0.89035,0.82435 1.0504,0.77442 0.16005,-0.0499 0.75338,-0.97768 1.31851,-2.06165 z m 44.51678,1.48996 c 5.52626,-1.70016 7.784207,-5.609883 5.6793,-9.833886 -1.05176,-2.110602 -3.07586,-3.689527 -5.81393,-4.535229 -3.25752,-1.006147 -4.94448,-0.307718 -6.75146,2.795213 l -0.97321,1.671197 1.26651,0.379456 c 1.00674,0.301628 1.2665,0.533142 1.2665,1.128803 0,1.029143 -0.61013,0.979833 -5.07527,-0.410154 -4.30298,-1.33951 -6.37809,-2.323641 -9.86309,-4.677632 -1.3759,-0.929373 -2.88857,-1.860998 -3.36148,-2.070275 -0.78056,-0.345414 -0.86909,-0.315587 -0.96,0.32345 -0.11287,0.793321 -0.58663,0.824179 -2.7421,0.178608 -1.19096,-0.356698 -1.42823,-0.34162 -1.88994,0.120086 -0.49065,0.490656 -0.45092,0.561834 0.56195,1.00655 0.59946,0.263204 2.16993,0.862487 3.48993,1.331735 1.32,0.469248 3.48,1.256096 4.8,1.74855 1.32,0.492455 3.984,1.34569 5.92,1.896074 1.936,0.550384 4.636,1.444761 6,1.987501 2.12533,0.84567 2.48,1.09606 2.48,1.750823 0,0.97221 -0.19984,0.9625 -4.0279,-0.19571 -4.47721,-1.354633 -6.27528,-1.537073 -7.09267,-0.719683 -0.35169,0.35168 -0.70334,0.831173 -0.78146,1.065523 -0.11581,0.34743 -0.69924,0.31666 -3.16,-0.16664 -2.91567,-0.572653 -3.08305,-0.573203 -4.93797,-0.0162 l -1.92,0.57653 1.12,0.25357 c 0.616,0.13946 2.848,0.41361 4.96,0.60923 4.74072,0.43909 4.9549,0.48928 7.52,1.76206 1.144,0.56764 3.016,1.33043 4.16,1.69509 1.144,0.36466 2.296,0.73203 2.56,0.81638 1.32594,0.42366 5.50355,0.1636 7.56629,-0.471 z m -9.63332,-1.86411 c -0.10164,-0.16445 -0.97414,-0.52848 -1.93888,-0.80894 -1.10013,-0.31981 -1.75409,-0.68555 -1.75409,-0.98098 0,-0.56299 0.20752,-0.57871 1.63225,-0.1236 2.39692,0.76565 2.84775,1.02074 2.84775,1.61136 0,0.63124 -0.47171,0.81235 -0.78703,0.30216 z m 30.867027,0.74137 c 4.3191,-2.04027 6.78669,-2.96437 9.60941,-3.59869 4.25025,-0.955113 8.933464,-1.494863 12.310594,-1.418813 l 2.88,0.0648 -2.08,-0.77979 c -3.52396,-1.32112 -4.32,-1.818719 -4.32,-2.700358 0,-0.929344 1.59621,-1.967155 4.23408,-2.752883 0.92075,-0.274256 1.75725,-0.633206 1.85889,-0.797664 0.24415,-0.395053 -1.58063,-0.380214 -3.7293,0.03034 -0.94802,0.181139 -3.23567,0.542048 -5.08367,0.802026 -4.633314,0.651814 -6.444264,1.221533 -9.600004,3.020121 -3.03156,1.727808 -6.54665,2.915398 -8.86634,2.995528 -1.32539,0.0458 -1.54646,-0.0365 -1.62794,-0.6062 -0.0809,-0.56545 0.23762,-0.7547 2.24,-1.331 1.28385,-0.369502 2.98228,-0.820334 3.77428,-1.001844 0.792,-0.181511 2.58186,-0.982768 3.97748,-1.780576 3.02726,-1.730541 9.146333,-4.346666 10.172654,-4.349178 4.11749,-0.01008 6.69091,-3.720886 5.7476,-8.287926 -0.54234,-2.625792 -0.47567,-3.772359 0.26227,-4.510298 0.352,-0.352 0.76637,-0.64 0.92082,-0.64 0.54554,0 0.97002,0.84239 0.78363,1.555139 -0.1336,0.510883 0.0514,0.97361 0.63303,1.583347 0.98456,1.032144 1.50188,2.298461 1.5043,3.682346 0.003,1.995587 0.59105,3.29944 1.89359,4.202102 1.06189,0.735892 1.45483,0.834125 2.63626,0.659072 1.11354,-0.164998 1.75339,-0.03802 3.23242,0.641453 1.38295,0.635338 2.04608,0.779827 2.65201,0.577853 1.05037,-0.350122 5.43372,-4.726118 5.92704,-5.917085 0.53773,-1.298195 -0.28683,-2.184227 -2.03268,-2.184227 -1.19777,0 -3.42325,-0.785594 -6.57664,-2.321549 -0.86974,-0.423635 -1.92433,-1.374518 -2.8305,-2.552157 -1.96978,-2.559875 -2.89143,-3.357836 -4.15132,-3.594195 -0.8702,-0.163248 -1.07196,-0.348947 -1.07196,-0.986598 0,-0.677783 0.1471,-0.785501 1.07268,-0.785501 1.44347,0 2.89553,1.041459 4.87867,3.499142 0.90886,1.12633 2.20961,2.339642 2.89056,2.696244 1.37729,0.72127 6.40773,2.128304 6.67032,1.865715 0.0923,-0.09227 0.16777,-0.558973 0.16777,-1.037114 0,-0.616208 -0.19724,-0.920921 -0.67737,-1.04648 -0.56447,-0.147609 -0.6501,-0.353837 -0.51375,-1.237321 0.09,-0.583101 0.37879,-1.628554 0.64178,-2.323223 0.76397,-2.017942 -0.29404,-3.376963 -2.62897,-3.376963 -1.9491,0 -4.21958,-1.052822 -6.26186,-2.903616 -2.06257,-1.869178 -2.81596,-2.228893 -5.97524,-2.85295 -1.94686,-0.384564 -2.69857,-0.956362 -2.37293,-1.804983 0.17272,-0.450109 0.55715,-0.502934 2.55852,-0.351571 2.89531,0.218973 3.91807,0.725853 6.65576,3.298614 2.24917,2.113677 3.50976,2.689498 5.89488,2.69272 1.68176,0.0022 2.21282,-0.614246 2.14042,-2.48488 -0.0981,-2.535952 -1.14423,-3.909644 -5.22124,-6.856384 -4.95411,-3.580672 -6.59321,-4.60024 -8.90716,-5.54048 -2.41812,-0.982569 -3.77805,-1.015875 -4.73594,-0.115987 -0.82565,0.775661 -1.7169,0.609139 -1.7169,-0.320787 0,-0.830512 2.58692,-3.105674 5.30938,-4.669533 3.45939,-1.987165 8.13062,-7.15189 8.13062,-8.989575 0,-0.905925 -0.89182,-1.941147 -1.92,-2.228748 -0.65383,-0.182885 -0.72692,-0.147037 -0.4,0.196194 0.22,0.230981 0.4,0.679166 0.4,0.995966 0,0.696229 -0.8174,0.769176 -1.07572,0.096 -0.10768,-0.280596 -0.58718,-0.48 -1.15424,-0.48 -0.98478,0 -1.38032,-0.741115 -0.57004,-1.06807 0.22,-0.08877 -0.56158,-0.172772 -1.73685,-0.186667 -2.9782,-0.03521 -6.79178,-0.601936 -9.06315,-1.346853 -2.46209,-0.8074632 -6.993274,-3.0968642 -9.504434,-4.8021652 -1.13478,-0.77061 -3.31933,-1.79167 -5.18788,-2.42481 -2.77983,-0.941922 -3.6273,-1.089735 -6.10769,-1.065283 -1.584,0.01562 -3.816,0.240406 -4.96,0.499534 -5.53333,1.25336 -5.34867,1.243617 -9.803717,0.517282 -4.97558,-0.8112 -6.76886,-0.844553 -10.55436,-0.196301 -5.03832,0.862792 -7.77431,1.697846 -11.10122,3.388221 -5.71082,2.901617 -8.00751,3.273901 -14.40731,2.335365 -3.95473,-0.579965 -5.44481,-0.426063 -6.13946,0.634111 -0.42848,0.653942 -0.42814,0.8849601 0.003,2.1074042 1.32288,3.749464 3.23648,6.026908 7.61448,9.062307 1.81075,1.255445 2.77585,2.126725 2.71121,2.447637 -0.10389,0.515805 -1.24907,0.626403 -2.19347,0.21184 -0.39122,-0.171734 -0.63638,0.104973 -1.04807,1.182966 -0.54013,1.414317 -2.56114,4.063482 -3.09997,4.063482 -0.15887,0 -1.04765,0.480038 -1.97506,1.066749 -2.50781,1.586515 -6.64358,3.223888 -7.06887,2.798601 -0.47948,-0.479481 -0.1203,-0.723446 2.58832,-1.758035 3.08893,-1.179856 6.88405,-3.689622 7.87933,-5.210723 1.03179,-1.576874 1.33786,-2.850685 0.83155,-3.460749 -0.60172,-0.72503 -0.82193,-0.587037 -1.22845,0.769811 -0.53544,1.78714 -2.59595,3.617354 -6.21402,5.519517 -2.93661,1.543895 -4.72887,3.029952 -4.70284,3.899383 0.0202,0.674409 0.87227,4.405616 1.04569,4.579036 0.39407,0.394074 11.73505,-1.297104 12.96174,-1.93287 1.3153,-0.681686 3.77914,-2.957466 4.54706,-4.199981 0.73557,-1.190179 1.48992,-1.435021 1.81459,-0.58896 0.52009,1.355351 -3.11859,5.335994 -6.14349,6.720835 -1.18053,0.540464 -2.70402,0.89608 -4.60139,1.074061 -3.01731,0.283037 -4.31661,0.781555 -6.11544,2.346378 -3.12376,2.717411 -4.27158,5.192499 -4.84047,10.437696 -0.21113,1.946589 -0.50439,3.539251 -0.6517,3.539251 -0.1473,0 -0.26783,0.514691 -0.26783,1.143757 0,0.947856 -0.29817,1.456358 -1.74088,2.968893 -0.95749,1.003824 -1.89349,2.226508 -2.08,2.717075 -0.49148,1.292685 -0.42322,4.452928 0.11198,5.184867 0.4259,0.582448 0.48471,0.586496 1.05272,0.07246 0.33088,-0.29945 1.07722,-1.52154 1.65852,-2.715751 1.31847,-2.708637 2.77538,-3.909811 6.97672,-5.752077 3.4625,-1.518284 5.78896,-3.520521 7.1132,-6.121849 0.75583,-1.484762 4.96494,-6.229703 5.67817,-6.401024 0.73935,-0.177594 0.84394,0.837741 0.30663,2.976768 -0.71211,2.834925 -0.65077,4.429728 0.29738,7.731085 1.23748,4.30878 2.13953,5.421302 7.15017,8.818412 3.87469,2.62697 8.53657,5.057386 9.70076,5.057386 0.64709,0 2.31064,-1.850442 3.12512,-3.476214 1.18457,-2.364516 5.49283,-6.101229 6.56159,-5.691108 0.26836,0.10298 0.48792,0.529437 0.48792,0.947684 0,0.801334 0.69057,1.567622 1.76,1.952972 1.52731,0.55034 5.87251,0.80256 8.635387,0.501252 5.3553,-0.584032 7.52461,-1.322634 7.52461,-2.561962 0,-0.461466 0.21645,-0.632624 0.8,-0.632624 0.44,0 0.8,0.123725 0.8,0.274947 0,0.498112 2.61483,3.256967 3.54075,3.735783 0.4991,0.258099 1.42314,0.46927 2.0534,0.46927 2.59939,0 1.45905,1.766541 -2.75485,4.267667 -2.19302,1.301648 -2.67945,1.410451 -2.9661,0.663456 -0.26094,-0.680009 -0.17302,-0.786576 1.70532,-2.0668 1.81073,-1.23416 2.05548,-1.718272 0.74148,-1.466685 -0.484,0.09267 -1.633,0.261213 -2.55334,0.374541 -2.91203,0.358573 -7.71694,4.025821 -8.36947,6.387821 -0.48451,1.753803 -0.44744,4.394263 0.0717,5.104173 0.57215,0.78246 4.33624,1.73515 6.93115,1.75426 1.59694,0.0118 2.48874,-0.17776 3.84,-0.81607 z M 122.51287,50.057512 c -1.21179,-2.375312 0.32001,-2.389904 1.59094,-0.01517 0.20795,0.388551 0.29093,0.847479 0.1844,1.019844 -0.41151,0.665843 -1.13074,0.258822 -1.77534,-1.004688 z M 37.412299,49.615586 c 0,-0.878806 0.2739,-1.393898 1.27186,-2.391859 0.69952,-0.699523 1.63552,-1.363136 2.08,-1.474691 1.0851,-0.272343 1.02015,-0.651047 -0.15186,-0.88545 -0.68741,-0.137482 -0.96,-0.376 -0.96,-0.84 0,-0.497392 0.20962,-0.648 0.90192,-0.648 2.16544,0 4.1363,-0.926061 5.7183,-2.686883 2.08329,-2.318784 3.56025,-2.994535 7.84785,-3.590618 4.92359,-0.684502 6.60342,-1.360422 7.91303,-3.184022 0.90786,-1.264179 1.17588,-1.44137 2.05159,-1.356314 2.11947,0.205856 2.56523,3.084855 1.31644,8.50249 -0.52923,2.29599 -1.72105,3.836886 -3.63535,4.700112 -0.78888,0.355737 -1.40733,0.939993 -1.74537,1.648851 -1.05967,2.22217 -2.65963,2.146714 -5.53908,-0.261238 -0.73187,-0.612029 -2.00166,-1.300644 -2.82175,-1.530256 -1.39595,-0.390842 -1.67939,-0.355277 -4.44224,0.557408 -1.62958,0.53832 -4.28921,1.777724 -5.93913,2.76768 -1.64339,0.986035 -3.18558,1.79279 -3.42709,1.79279 -0.28852,0 -0.43912,-0.384125 -0.43912,-1.12 z m 13.92,-7.492346 c 2.65391,-0.834998 3.71638,-1.357689 3.58322,-1.762793 -0.13828,-0.420727 -1.32177,-0.621053 -2.25577,-0.381827 -0.71128,0.182179 -4.00985,2.76016 -3.52229,2.752838 0.15116,-0.0022 1.13884,-0.275968 2.19484,-0.608218 z m 51.200001,6.624868 c -0.352,-0.20241 -1.6157,-1.206032 -2.808221,-2.230269 -2.400203,-2.061501 -2.458543,-2.075104 -6.528633,-1.522227 -3.11541,0.423196 -4.99384,1.293404 -5.87719,2.722678 -0.96551,1.562237 -2.08259,1.484128 -4.61457,-0.322656 -3.75108,-2.67672 -4.97139,-4.890154 -4.97139,-9.017296 0,-2.235962 0.36572,-3.464419 1.3415,-4.506154 1.10566,-1.180384 2.21625,-1.21367 4.25183,-0.127424 1.72046,0.918093 1.98535,0.964125 5.22946,0.90882 3.2387,-0.05522 3.50754,-0.0087 5.14657,0.889596 2.08087,1.140516 3.65783,2.552196 3.47111,3.1073 -0.15746,0.468115 -3.03122,0.501241 -8.11348,0.09352 -2.07454,-0.166429 -3.30318,-0.145815 -3.42886,0.05753 -0.12267,0.19848 1.24593,0.394422 3.66251,0.524361 6.49246,0.349098 9.44844,1.472423 12.759364,4.848794 0.968,0.987133 2.35772,2.060749 3.08827,2.385814 1.27746,0.568419 1.97191,1.575213 1.5535,2.252221 -0.27163,0.439504 -3.36871,0.391418 -4.16177,-0.06461 z m 18.71818,-11.28354 c -1.96257,-0.521036 -2.33774,-0.749312 -5.27818,-3.21158 -1.408,-1.179031 -3.064,-2.361191 -3.68,-2.627021 -3.25001,-1.402522 -3.84,-1.707863 -3.84,-1.987338 0,-0.584953 0.57957,-0.656419 1.48669,-0.183315 0.50232,0.261981 1.13129,0.477216 1.39771,0.478301 0.61061,0.0026 3.89388,2.257603 6.13062,4.210825 1.1642,1.016624 2.2867,1.657632 3.53906,2.020986 1.00875,0.292675 1.925,0.679238 2.03612,0.85903 0.39116,0.632919 -0.36567,0.818791 -1.79202,0.440112 z m -17.6263,-23.865347 c -2.25141,-0.533527 -4.504764,-1.605648 -6.522724,-3.103437 -3.05985,-2.2711062 -7.40736,-4.7186672 -10.09925,-5.6856712 -4.03021,-1.447773 -4.69204,-1.567037 -6.44741,-1.161849 -2.07964,0.480039 -2.5025,0.463449 -2.5025,-0.09818 0,-0.594716 1.81003,-0.984974 4.32,-0.931429 2.27633,0.04856 6.32093,1.459505 9.44,3.293109 1.144,0.672522 2.69849,1.535241 3.45442,1.917153 0.75593,0.381913 1.92478,1.191605 2.59744,1.799316 1.44364,1.3042442 4.340224,2.6527182 6.264794,2.9165092 1.63114,0.223573 2.2451,0.550228 1.94546,1.035065 -0.24991,0.404367 -0.80715,0.408781 -2.45023,0.01941 z M 32.532299,11.192554 c -0.484,-0.262574 -0.88,-0.688809 -0.88,-0.947188 0,-0.6009311 0.29774,-0.5914691 1.58429,0.05035 1.91524,0.955449 4.5152,0.331122 13.34115,-3.2036112 2.84291,-1.138562 5.93625,-2.105946 8.32,-2.601924 5.61538,-1.168365 11.3321,-0.995136 11.85178,0.359135 0.27843,0.725566 0.0805,0.751366 -1.81765,0.236977 -4.04839,-1.097075 -10.88007,0.167194 -19.17067,3.547721 -2.7748,1.1314341 -5.91723,2.2831482 -6.98318,2.5593642 -2.41567,0.625963 -5.09102,0.625612 -6.24572,-8.32e-4 z m 36.96,-5.7340462 c -0.572,-0.248614 -1.04,-0.674978 -1.04,-0.947474 0,-0.622547 0.28746,-0.622268 1.53782,0.0015 1.18517,0.591242 2.892887,0.365654 4.035437,-0.533078 0.96096,-0.755889 1.54511,-0.774059 1.4102,-0.04386 -0.13319,0.72094 -2.67055,2.003717 -3.93126,1.987475 -0.534707,-0.0069 -1.440197,-0.215938 -2.012197,-0.464553 z M 121.27371,76.952665 c 0.9282,-0.99364 1.48375,-2.768743 1.14379,-3.654673 -0.12929,-0.33693 -0.64715,-0.48241 -1.71727,-0.48241 -2.20395,0 -3.48188,-0.45069 -5.84215,-2.060393 -2.30235,-1.570201 -4.13694,-2.10551 -4.73719,-1.382249 -0.54274,0.653964 0.18411,1.531033 2.98605,3.603172 1.30678,0.9664 3.1716,2.477633 4.14404,3.358293 0.97245,0.88065 2.0688,1.60118 2.43632,1.60118 0.36752,0 1.08141,-0.44231 1.58641,-0.98292 z m 2.37268,-7.334833 c 0.76022,-0.289036 0.8155,-0.425676 0.61172,-1.511971 -0.33933,-1.808736 -0.78403,-2.103712 -2.24882,-1.491683 -1.42086,0.593674 -3.63117,0.408506 -4.87836,-0.408685 -0.76341,-0.500208 -0.82542,-0.492233 -1.25981,0.161994 -0.47636,0.717424 -1.47768,0.920077 -1.81882,0.368099 -0.10878,-0.176 -0.42291,-0.32 -0.69807,-0.32 -0.42922,0 -0.4379,0.07558 -0.0611,0.532006 0.60917,0.737924 2.90142,1.720394 5.55918,2.382688 2.639,0.657623 3.65971,0.718845 4.79409,0.287552 z"
     id="path369"
     inkscape:export-filename="shutup.svg"
     inkscape:export-xdpi="96"
     inkscape:export-ydpi="96" />
</svg>
