<?xml version="1.0" encoding="UTF-8"?>
<svg id="Layer_2" data-name="Layer 2" xmlns="http://www.w3.org/2000/svg" viewBox="0 0 378.18 369.14">
  <style>
  path {
  fill: #000;
    }

  @media (prefers-color-scheme: dark) {
    path { fill: #fff; }
    }
  </style>
  <g id="Layer_1-2" data-name="Layer 1">
    <path d="m120.72,183.27c-1.05,3.03.38,6.5,3.63,7.63,4.74,1.65,7.75-2.08,9.64-10.95-4.11-14.64,54.67-10.7,63.71-10.7,4.06,0-2.74,9.35,7.02,3.14,1.77-18.57-63.74-9.8-75.1-.24-6.02,4.53-8,8.55-8.9,11.12Z"/>
    <path d="m228.36,180.83c-1.1,3.03.4,6.5,3.79,7.63,4.95,1.65,16.14-2.92,18.12-11.8-4.3-14.64,50.98-13.19,58.54-9.86,8.45,3.73,7.44,9.95,11.97,2.43,9.63-15.98-71.25-9.09-83.12.47-6.29,4.53-8.36,8.55-9.3,11.12Z"/>
    <path d="m190.89,176.67c2.54.33,6.51-3.69-1.93-6.16-13.41,1.07-19.13,18.28-16.49,28.92,21.13,35.5,58.65-40.31,14.71-19.04"/>
    <path d="m236.93,282.93c-11.29,2.76-25.37-4.81-31.95-9.74-1.57-1.48-2.96-3.75-2.96-3.75,2.19-2.86-4.43-5.19-5.18,1.95,1.22,13.05,27.16,20.86,40.08,18.76,13.34-2.16,42.74-17.42,22.85-12.93"/>
    <path d="m237.86,242.24c-23.56,5.21,12.47,15.25,9.44-4.33.98-5.97-8.16-20.41-8.16-16.7"/>
    <path d="m77.56,303.82c4.22,2.33,8.27,13.31,12.9,4.3,2.29-2.29-17.25-19.29-12.9-4.3Z"/>
    <path d="m63.33,232.88c34.98.3,34.78-19.6,11.06-7.41-59.21,15.36-17.56,24.48,17.05,16.12,34.06-28.84-93.65,29.72-20.97,20.2,6.09-1,12.45-2.04,18.53-3.04,32.06-25.14-89.74,22.78-4.91,18.09,11.15,1,12.21-11.86.52-8.82-81.95,12.77,20.03,39.05-3.26,16.09-45.11,6.1,22.26,40.64,5.36,11.54-11.71-4.47-17.49,13.64-3.2,8.39-12.32-5.72,8.35.63-6.65-11.6-3.26,4.17,3.27.33,5.9.35,19.08-11.7-26.48-10.69-18.82-10.17,40.11-9.18,31.26-16.25.16-15.03-14.28,11.95,50.97-12.76,24.76-17.72-8.05,2.71-34.97,1.99-30.01,8.29-2.83-.06,59.05-19.34,31.17-25.24-43.51.04-51.26,17.42-6.27-1.82,32.28-18.08-47.11-3.96-33.68-4.83-28.55,7.87,17.5,9.85,26.4-.6,25.46-17.6-12.04-13.46-26.6-9.5-25.53,13.17,20.41,7.62,28.59,1.97,42.92-23.32-60.6-10.52-29.24,1.7,77.52-15.17-20.7-17.61-3.54-8.1,76.56-18,45.93-20.77-11.12-11.66-1.23,15.25,29.16-1.83,47.2-13.56,34.79-26.28-80.99,5.03-37.08,2.92,30.3-1.67,42.64-22.64-3.55-9.17-46.73,13.22,47.51,13.92,15.36-.06-44.71-10.23-27.89,26.27-18.06,7.93-2.35-3.99-4.45,1.16,19.05.97,30.86-19.31-65.96-.68-14.93-.15,44.21-3.75,38.72-22.29-2.97-7.02-16.06,9.64,11.2,10.17,21.34,7.12,36.39-1.9,29.65-21.72,16.71-11.19-63.97,29.77-62.14,40.5,16.12,21.28.47-24.01-126.56,32.28-20.93,14.51,26.04-9.11-28.67-11.47-21.24,4.85,2.86-1.49,26.29-5.45,28.23-5.2,4.15-11.12-60.54,11.1-26.83,11.27"/>
    <path d="m175.26,27.58c-11.7,71.55,255.3,109.68,193.67,57.78-47.62-40.1-189.97-126.62-193.67-57.78Z"/>
    <path d="m184.43,369.14c-24.57,0-52.61-13.84-67.97-22.65-24.16-13.86-45.68-31.48-53.55-43.85-25.52-40.1-40.77-77.8-41.84-103.44-1.79-43.03,14.26-84.49,45.21-116.75,32.52-33.9,77.94-53.34,124.61-53.34,51.64,0,101.17,22.23,132.49,59.48,25.95,30.85,36.53,69.12,29.81,107.76l-6.44-1.12,6.44,1.12-.74,4.26c-6.34,36.53-9.24,53.2-21.87,86.03-21.61,56.19-87.46,75.64-138.89,82.07-2.38.3-4.81.44-7.27.44Zm6.46-326.96c-43.13,0-85.11,17.98-115.18,49.32-28.46,29.67-43.22,67.72-41.58,107.16.96,23.06,15.84,59.3,39.81,96.96,5.68,8.93,24.35,25.37,49.03,39.53,26.35,15.12,50.81,22.62,67.11,20.58,47.89-5.99,109.02-23.65,128.31-73.79,12.17-31.63,14.99-47.91,21.19-83.58l.74-4.26c6.05-34.77-3.52-69.26-26.94-97.1-28.87-34.33-74.66-54.82-122.49-54.82Z"/>
    <path d="m299.44,179.61c-2.56-4.58,5.67-8.55-1.78-13.22-13.19-2.61-16.07,19.47-16.42,30.42,10.69,39.91,66.4-25.3,18.34-16.77"/>
    <path d="m205.78,41.43C177.83-28.4,110.14,4.05,55.09,37.19,2.77,68.68-2.27,110.68.65,157.44c4.05,64.71,257.28-15.8,205.12-116.01Z"/>
  </g>
</svg>