<?xml version="1.0" encoding="UTF-8"?>
<svg id="Layer_2" data-name="Layer 2" xmlns="http://www.w3.org/2000/svg" viewBox="0 0 378.18 369.14">
  <defs>
    <style>
      .cls-1 {
        fill: none;
        stroke: #000;
        stroke-miterlimit: 10;
        stroke-width: 13.07px;
      }
    </style>
  </defs>
  <g id="Layer_1-2" data-name="Layer 1">
    <g>
      <path d="m120.72,183.27c-1.05,3.03.38,6.5,3.63,7.63,4.74,1.65,7.75-2.08,9.64-10.95-4.11-14.64,54.67-10.7,63.71-10.7,4.06,0-2.74,9.35,7.02,3.14,1.77-18.57-63.74-9.8-75.1-.24-6.02,4.53-8,8.55-8.9,11.12Z"/>
      <path d="m228.36,180.83c-1.1,3.03.4,6.5,3.79,7.63,4.95,1.65,16.14-2.92,18.12-11.8-4.3-14.64,50.98-13.19,58.54-9.86,8.45,3.73,7.44,9.95,11.97,2.43,9.63-15.98-71.25-9.09-83.12.47-6.29,4.53-8.36,8.55-9.3,11.12Z"/>
      <path d="m190.89,176.67c2.54.33,6.51-3.69-1.93-6.16-13.41,1.07-19.13,18.28-16.49,28.92,21.13,35.5,58.65-40.31,14.71-19.04"/>
      <path d="m236.93,282.93c-11.29,2.76-25.37-4.81-31.95-9.74-1.57-1.48-2.96-3.75-2.96-3.75,2.19-2.86-4.43-5.19-5.18,1.95,1.22,13.05,27.16,20.86,40.08,18.76,13.34-2.16,42.74-17.42,22.85-12.93"/>
      <path d="m237.86,242.24c-23.56,5.21,12.47,15.25,9.44-4.33.98-5.97-8.16-20.41-8.16-16.7"/>
      <path d="m169.44,331.61c1.01-1.53.14-3.56-.62-4.58-1.49-2-4.09-2.42-4.38-2.42-.63-.12-1.51.2-2.14.76-1.48,1.31-.7,5.93,2.14,7.24,1.53.71,3.96.58,5-1Z"/>
      <path d="m192.89,333.36c.35-.05,1.74-.26,2.29-.55,1.4-.75,2.02-4.77,0-6.14-.59-.4-1.35-.62-2.29-.55h-.28c-1.13-.15-2.04.09-2.75.55-1.89,1.24-2.12,4.69-.45,6.11,1.04.88,2.47.71,2.92.64.13-.01.32-.04.55-.07Z"/>
      <path d="m220.66,346.55c-1.31.83,11.02,1.25,4.14-6.15-3.53-4.32-12.96,3.85-4.14,6.15Z"/>
      <path d="m198.61,356.65c4.78.15,4.78-7.38,0-7.23-4.69-.07-4.69,7.3,0,7.23Z"/>
      <path d="m172.66,345.71c4.78.15,4.78-7.38,0-7.23-4.69-.07-4.69,7.3,0,7.23Z"/>
      <path d="m243.01,318.32c2.61.58-.86-.62-1.06-.88,2.98,4.83,9.96-.19,6.01-4.22-4.31-6.23-12.58,2.74-4.95,5.1Z"/>
      <path d="m249.83,342.7c2-1.21-10.01-2.61-5.85,4.08"/>
      <path d="m274.21,332.07c10.5-7.51-4.3-12.9-3.77-4.47,3.91-8.32-8.3,8.85,3.77,4.47Z"/>
      <path d="m300.15,305.73c4.78.15,4.78-7.38,0-7.23-4.69-.07-4.69,7.3,0,7.23Z"/>
      <path d="m77.56,303.82c4.22,2.33,8.27,13.31,12.9,4.3,2.29-2.29-17.25-19.29-12.9-4.3Z"/>
      <path d="m100.44,305.61c4.23,4.23,12-1,4.7-5.79-4.2-2.75-1.74-1.14-3.7-2.21-2.49-1.36-10.69,1.58-3.35,6.46"/>
      <path d="m103.44,311.61c-3-1-12.38-1.04-5,5h0c8.97,4.32,7.96-3.02,5-5Z"/>
      <path d="m116.74,320.79c.7.81,1.49,2.49,1.7,2.81,2,3,6.36,2.22,5.04-5.12.16-7.09-15.53-4.99-6.74,2.31Z"/>
      <path d="m144.44,329.61s.16-.62-.48-1.65c-.98-1.58-8.02-.26-7.95,1.64.03.74.73,1.51,2.46,2.2,2.83,1.12,6.11-.68,6.06-1.07,0-.03-.03-.04-.09-.11-.23-.32,0-1,0-1Z"/>
      <path d="m63.33,232.88c34.98.3,34.78-19.6,11.06-7.41-59.21,15.36-17.56,24.48,17.05,16.12,34.06-28.84-93.65,29.72-20.97,20.2,6.09-1,12.45-2.04,18.53-3.04,32.06-25.14-89.74,22.78-4.91,18.09,11.15,1,12.21-11.86.52-8.82-81.95,12.77,20.03,39.05-3.26,16.09-45.11,6.1,22.26,40.64,5.36,11.54-11.71-4.47-17.49,13.64-3.2,8.39-12.32-5.72,8.35.63-6.65-11.6-3.26,4.17,3.27.33,5.9.35,19.08-11.7-26.48-10.69-18.82-10.17,40.11-9.18,31.26-16.25.16-15.03-14.28,11.95,50.97-12.76,24.76-17.72-8.05,2.71-34.97,1.99-30.01,8.29-2.83-.06,59.05-19.34,31.17-25.24-43.51.04-51.26,17.42-6.27-1.82,32.28-18.08-47.11-3.96-33.68-4.83-28.55,7.87,17.5,9.85,26.4-.6,25.46-17.6-12.04-13.46-26.6-9.5-25.53,13.17,20.41,7.62,28.59,1.97,42.92-23.32-60.6-10.52-29.24,1.7,77.52-15.17-20.7-17.61-3.54-8.1,76.56-18,45.93-20.77-11.12-11.66-1.23,15.25,29.16-1.83,47.2-13.56,34.79-26.28-80.99,5.03-37.08,2.92,30.3-1.67,42.64-22.64-3.55-9.17-46.73,13.22,47.51,13.92,15.36-.06-44.71-10.23-27.89,26.27-18.06,7.93-2.35-3.99-4.45,1.16,19.05.97,30.86-19.31-65.96-.68-14.93-.15,44.21-3.75,38.72-22.29-2.97-7.02-16.06,9.64,11.2,10.17,21.34,7.12,36.39-1.9,29.65-21.72,16.71-11.19-63.97,29.77-62.14,40.5,16.12,21.28.47-24.01-126.56,32.28-20.93,14.51,26.04-9.11-28.67-11.47-21.24,4.85,2.86-1.49,26.29-5.45,28.23-5.2,4.15-11.12-60.54,11.1-26.83,11.27"/>
      <path d="m175.26,27.58c-11.7,71.55,255.3,109.68,193.67,57.78-47.62-40.1-189.97-126.62-193.67-57.78Z"/>
      <path class="cls-1" d="m346.76,195.22c-6.78,39-9.39,55.59-22.27,89.07-18.56,48.24-74.22,70.51-133.6,77.93-40.51,5.06-108.47-41.09-122.47-63.09-24.18-38-39.78-75.14-40.82-100.2C23.89,109.87,100.71,35.65,190.89,35.65s171.32,70.73,155.87,159.58Z"/>
      <path d="m299.44,179.61c-2.56-4.58,5.67-8.55-1.78-13.22-13.19-2.61-16.07,19.47-16.42,30.42,10.69,39.91,66.4-25.3,18.34-16.77"/>
    </g>
    <path d="m205.78,41.43C177.83-28.4,110.14,4.05,55.09,37.19,2.77,68.68-2.27,110.68.65,157.44c4.05,64.71,257.28-15.8,205.12-116.01Z"/>
  </g>
</svg>